<svg width="80" height="80" viewBox="0 0 80 80" fill="none" xmlns="http://www.w3.org/2000/svg">
<path d="M40 70C56.5685 70 70 56.5685 70 40C70 23.4315 56.5685 10 40 10C23.4315 10 10 23.4315 10 40C10 56.5685 23.4315 70 40 70Z" stroke="white" stroke-width="3" stroke-linecap="round" stroke-linejoin="round"/>
<path d="M18.75 18.8125C24.3592 24.4364 27.5064 32.057 27.5 40C27.5064 47.943 24.3592 55.5636 18.75 61.1875" stroke="white" stroke-width="3" stroke-linecap="round" stroke-linejoin="round"/>
<path d="M61.2502 18.8125C55.6474 24.4405 52.502 32.0586 52.502 40C52.502 47.9414 55.6474 55.5595 61.2502 61.1875" stroke="white" stroke-width="3" stroke-linecap="round" stroke-linejoin="round"/>
<path d="M10 40H70" stroke="white" stroke-width="3" stroke-linecap="round" stroke-linejoin="round"/>
<path d="M40 10V70" stroke="white" stroke-width="3" stroke-linecap="round" stroke-linejoin="round"/>
</svg>
