<svg width="80" height="80" viewBox="0 0 80 80" fill="none" xmlns="http://www.w3.org/2000/svg">
<path d="M11.4686 54.0627L19.0311 11.219C19.084 10.8956 19.2007 10.586 19.3744 10.3082C19.5481 10.0304 19.7754 9.78997 20.043 9.60091C20.3106 9.41184 20.6132 9.27794 20.933 9.207C21.2529 9.13606 21.5837 9.1295 21.9061 9.18771L39.1561 12.219C39.8079 12.3408 40.3858 12.7135 40.7656 13.257C41.1455 13.8005 41.2969 14.4713 41.1874 15.1252L33.5936 58.219C33.0736 61.1207 31.4384 63.7036 29.0379 65.4148C26.6375 67.1261 23.6626 67.8297 20.7499 67.3752C14.5311 66.3752 10.3749 60.2815 11.4686 54.0627Z" stroke="white" stroke-width="3" stroke-linecap="round" stroke-linejoin="round"/>
<path d="M36.9678 39.0005L59.749 30.7192C60.0587 30.6049 60.3881 30.553 60.7179 30.5666C61.0478 30.5802 61.3717 30.659 61.671 30.7984C61.9703 30.9379 62.2389 31.1353 62.4615 31.3791C62.6841 31.623 62.8561 31.9085 62.9678 32.2192L68.9678 48.6567C69.1891 49.2784 69.1556 49.9624 68.8746 50.5596C68.5936 51.1567 68.0879 51.6185 67.4678 51.8442L26.3428 66.813" stroke="white" stroke-width="3" stroke-linecap="round" stroke-linejoin="round"/>
<path d="M68.75 50.7812V65C68.75 65.663 68.4866 66.2989 68.0178 66.7678C67.5489 67.2366 66.913 67.5 66.25 67.5H22.5" stroke="white" stroke-width="3" stroke-linecap="round" stroke-linejoin="round"/>
<path d="M22.5 60C24.5711 60 26.25 58.3211 26.25 56.25C26.25 54.1789 24.5711 52.5 22.5 52.5C20.4289 52.5 18.75 54.1789 18.75 56.25C18.75 58.3211 20.4289 60 22.5 60Z" fill="white"/>
</svg>
